<svg display="none"  xmlns="http://www.w3.org/2000/svg">
    <symbol id="arrow" viewBox="0 0 22 19">
        <g>
            <path d="M9.77318 18.0876C9.89091 17.9712 9.98433 17.8329 10.0481 17.6807C10.1118 17.5284 10.1446 17.3651 10.1446 17.2003C10.1446 17.0354 10.1118 16.8721 10.0481 16.7198C9.98433 16.5676 9.89091 16.4293 9.77318 16.3129L4.35425 10.9375L19.8249 10.9375C20.1598 10.9375 20.481 10.8055 20.7179 10.5706C20.9547 10.3356 21.0878 10.017 21.0878 9.68475C21.0878 9.3525 20.9547 9.03386 20.7179 8.79892C20.481 8.56398 20.1598 8.432 19.8249 8.432L4.35425 8.432L9.77318 3.05453C10.0104 2.81919 10.1437 2.49999 10.1437 2.16716C10.1437 1.83433 10.0104 1.51514 9.77318 1.27979C9.53593 1.04445 9.21414 0.912231 8.87862 0.912231C8.54309 0.912231 8.22131 1.04445 7.98406 1.27979L0.406605 8.79634C0.288869 8.91272 0.195451 9.05102 0.131709 9.20329C0.0679679 9.35557 0.0351563 9.51883 0.0351563 9.68371C0.0351563 9.84859 0.0679679 10.0118 0.131709 10.1641C0.195451 10.3164 0.288869 10.4547 0.406605 10.5711L7.98406 18.0876C8.10139 18.2044 8.2408 18.2971 8.39431 18.3603C8.54782 18.4235 8.7124 18.4561 8.87862 18.4561C9.04484 18.4561 9.20942 18.4235 9.36292 18.3603C9.51643 18.2971 9.65585 18.2044 9.77318 18.0876Z"/>
        </g>
    </symbol>
    <symbol id="circle" viewBox="0 0 68 65" fill="none">
        <g>
            <path d="M30.1577 63.5885C22.1545 63.0881 14.6428 59.5566 9.15157 53.713C3.66036 47.8694 0.602373 40.1528 0.600069 32.134C0.597764 24.1152 3.65131 16.3969 9.13917 10.5501C14.627 4.70337 22.1367 1.16762 30.1396 0.662594" stroke-width="1.2"/>
            <path d="M37.7039 63.5733C45.6967 63.0149 53.1771 59.434 58.6246 53.5584C64.072 47.6828 67.0779 39.9535 67.0312 31.9413C66.9845 23.9291 63.8888 16.2353 58.3732 10.4236C52.8577 4.61191 45.3361 1.11843 37.3373 0.653195"  stroke-width="1.2"/>
        </g>
    </symbol>

    <symbol id="whatsapp" viewBox="0 0 54 54">
        <g>
            <path d="M27 6C15.4201 6 6 15.4201 6 27C6 30.9504 7.09765 34.7853 9.17988 38.1155C8.35038 41.0215 6.85212 46.5187 6.83596 46.576C6.75842 46.8603 6.84162 47.164 7.05404 47.3684C7.26646 47.5727 7.57338 47.6454 7.85285 47.5598L16.1769 44.9994C19.4376 46.9637 23.1715 48 27 48C38.5799 48 48 38.5799 48 27C48 15.4201 38.5799 6 27 6ZM27 46.3846C23.35 46.3846 19.7946 45.3645 16.7173 43.4357C16.5872 43.3542 16.4378 43.313 16.2884 43.313C16.2084 43.313 16.1285 43.3251 16.0509 43.3485L8.7825 45.5858C9.31638 43.6368 10.2759 40.1508 10.8324 38.2116C10.897 37.987 10.8607 37.7447 10.7339 37.5485C8.69365 34.409 7.61538 30.7614 7.61538 27C7.61538 16.3118 16.3118 7.61538 27 7.61538C37.6882 7.61538 46.3846 16.3118 46.3846 27C46.3846 37.6882 37.6882 46.3846 27 46.3846Z"/>
            <path d="M40.7187 31.9478C39.2277 31.1199 37.958 30.2896 37.0316 29.6838C36.324 29.2218 35.8127 28.8882 35.438 28.7C34.3904 28.1774 33.5964 28.5466 33.2944 28.8519C33.2564 28.8898 33.2225 28.931 33.1934 28.9746C32.1054 30.607 30.6847 32.1683 30.2687 32.2523C29.7882 32.1771 27.5387 30.8986 25.3031 29.0368C23.0205 27.1347 21.5844 25.3134 21.3736 24.0728C22.838 22.5656 23.3654 21.6174 23.3654 20.5383C23.3654 19.4261 20.7711 14.7827 20.3018 14.3134C19.8309 13.8433 18.7704 13.7698 17.1494 14.0929C16.9935 14.1244 16.8497 14.2011 16.7367 14.3134C16.5404 14.5097 11.9479 19.1919 14.1302 24.8667C16.5259 31.0948 22.6748 38.3342 30.5143 39.5102C31.4052 39.6434 32.2403 39.7097 33.0222 39.7097C37.6341 39.7097 40.356 37.3892 41.1225 32.7861C41.1799 32.4493 41.0175 32.1133 40.7187 31.9478ZM30.7542 37.9126C22.464 36.6695 17.2423 28.4561 15.6382 24.2868C14.0471 20.1514 16.9814 16.4643 17.718 15.6308C18.3173 15.529 18.9481 15.4862 19.2114 15.5274C19.7615 16.2923 21.666 19.8905 21.75 20.5383C21.75 20.9623 21.6119 21.5528 19.9674 23.198C19.8156 23.3491 19.7308 23.5542 19.7308 23.7691C19.7308 27.9981 28.6509 33.8652 30.2308 33.8652C31.6047 33.8652 33.3961 31.556 34.4162 30.0513C34.4752 30.0537 34.5746 30.0739 34.7159 30.145C35.0067 30.2912 35.5107 30.6199 36.1479 31.0367C36.9896 31.5867 38.1074 32.3169 39.4272 33.0737C38.8279 35.9571 37.1527 38.8737 30.7542 37.9126Z" />
        </g>
    </symbol>

    <symbol id="telegram"  viewBox="0 0 54 54" fill="none">
        <g>
            <path d="M35.7142 21.7721L35.7145 21.7718C36.1816 21.2899 36.5202 20.8182 36.7051 20.385C36.8632 20.0146 37.0201 19.388 36.6032 18.9024C36.1705 18.3986 35.5133 18.4906 35.1226 18.6151C34.6693 18.7594 34.1576 19.0616 33.6118 19.5002C28.5686 23.5503 20.5071 29.6849 17.8678 31.3949C16.7139 32.1421 15.8887 32.544 15.2063 32.7381C14.5465 32.9257 13.988 32.9282 13.345 32.8142L13.3448 32.8142C10.7097 32.3476 8.27994 31.6269 6.31234 30.7582L6.31222 30.7582C5.25623 30.2922 4.737 29.289 4.75024 28.2395C4.76359 27.1812 5.31752 26.1781 6.31397 25.7315L43.7489 8.95813C43.749 8.95812 43.749 8.9581 43.749 8.95809C44.1616 8.77333 44.6103 8.71056 45.0501 8.77397C45.4901 8.83741 45.9108 9.02576 46.2674 9.32502C46.6244 9.62461 46.9045 10.0249 47.0731 10.4876L47.7777 10.2307L47.0731 10.4876C47.2418 10.9504 47.2913 11.4549 47.2153 11.9471L42.2503 43.9952C41.8373 46.6465 39.1727 48.0222 37.0334 46.7857C34.812 45.5016 31.5228 43.5289 28.5707 41.4754C27.8335 40.962 26.3666 39.9038 25.1596 38.698C24.5547 38.0937 24.0435 37.48 23.7189 36.9043C23.3884 36.3182 23.3064 35.8711 23.3835 35.5455C23.4127 35.4238 23.5248 35.174 23.7809 34.7769C24.0256 34.3974 24.3641 33.9399 24.7831 33.417C25.6204 32.3724 26.7455 31.109 28.0029 29.7564C29.8322 27.7886 31.9155 25.6595 33.7617 23.7727C34.4546 23.0646 35.1141 22.3906 35.7142 21.7721Z" stroke-width="1.5"/>
        </g>
    </symbol>

    <symbol id="mail"  viewBox="0 0 54 54" fill="none">
        <g>
           <path d="M19.3182 30.9071C19.6464 31.2301 19.6464 31.7537 19.3182 32.0767L11.1258 40.1402C10.9618 40.3017 10.7466 40.3824 10.5316 40.3824C9.7897 40.3824 9.40673 39.493 9.93749 38.9706L18.1299 30.9071C18.4581 30.5841 18.9901 30.5841 19.3182 30.9071ZM36.8701 30.9071C36.5418 30.5841 36.0099 30.5841 35.6817 30.9071C35.3535 31.2301 35.3535 31.7537 35.6817 32.0767L43.8741 40.1402C44.2024 40.4632 44.7343 40.4632 45.0625 40.1402C45.3907 39.8172 45.3907 39.2936 45.0625 38.9706L36.8701 30.9071ZM50 15.5027V40.4973C50 42.9801 47.9478 45 45.4253 45H9.57469C7.05217 45 5 42.9801 5 40.4973V15.5027C5 13.0199 7.05217 11 9.57469 11H45.4253C47.9478 11 50 13.0199 50 15.5027ZM48.3195 15.5027C48.3195 13.9319 47.0212 12.6541 45.4253 12.6541H9.57469C7.97887 12.6541 6.6805 13.9319 6.6805 15.5027V18.3237L25.9094 27.5149C26.9202 27.9981 28.0797 27.9982 29.0906 27.5149L42.5357 21.0883C42.9535 20.8888 43.4559 21.0601 43.6585 21.4709C43.8613 21.8817 43.6872 22.3766 43.2698 22.5761L29.8247 29.0028C28.3473 29.7089 26.6527 29.709 25.1752 29.0028L6.6805 20.1624V40.4973C6.6805 42.0681 7.97887 43.3459 9.57469 43.3459H45.4253C47.0212 43.3459 48.3195 42.0681 48.3195 40.4973V15.5027Z" fill="white"/>
        </g>
    </symbol>
</svg>