<svg width="22" height="19" viewBox="0 0 22 19" fill="none" xmlns="http://www.w3.org/2000/svg">
<path d="M9.77318 18.0876C9.89091 17.9712 9.98433 17.8329 10.0481 17.6807C10.1118 17.5284 10.1446 17.3651 10.1446 17.2003C10.1446 17.0354 10.1118 16.8721 10.0481 16.7198C9.98433 16.5676 9.89091 16.4293 9.77318 16.3129L4.35425 10.9375L19.8249 10.9375C20.1598 10.9375 20.481 10.8055 20.7179 10.5706C20.9547 10.3356 21.0878 10.017 21.0878 9.68475C21.0878 9.3525 20.9547 9.03386 20.7179 8.79892C20.481 8.56398 20.1598 8.432 19.8249 8.432L4.35425 8.432L9.77318 3.05453C10.0104 2.81919 10.1437 2.49999 10.1437 2.16716C10.1437 1.83433 10.0104 1.51514 9.77318 1.27979C9.53593 1.04445 9.21414 0.912231 8.87862 0.912231C8.54309 0.912231 8.22131 1.04445 7.98406 1.27979L0.406605 8.79634C0.288869 8.91272 0.195451 9.05102 0.131709 9.20329C0.0679679 9.35557 0.0351563 9.51883 0.0351563 9.68371C0.0351563 9.84859 0.0679679 10.0118 0.131709 10.1641C0.195451 10.3164 0.288869 10.4547 0.406605 10.5711L7.98406 18.0876C8.10139 18.2044 8.2408 18.2971 8.39431 18.3603C8.54782 18.4235 8.7124 18.4561 8.87862 18.4561C9.04484 18.4561 9.20942 18.4235 9.36292 18.3603C9.51643 18.2971 9.65585 18.2044 9.77318 18.0876Z" fill="white"/>
</svg>
