<svg width="52" height="48" viewBox="0 0 52 48" fill="none" xmlns="http://www.w3.org/2000/svg">
<path d="M48.6703 0.969727H3.32973C1.49368 0.969727 0 2.46351 0 4.29956V14.2807C0 15.7832 1.00049 17.0559 2.37006 17.469V23.9269C2.37006 24.3476 2.71101 24.6886 3.13178 24.6886C3.55255 24.6886 3.8935 24.3476 3.8935 23.9269V17.6105H9.204C8.92572 18.4765 8.7749 19.3989 8.7749 20.356C8.7749 25.315 12.8094 29.3494 17.7684 29.3494C22.7272 29.3494 26.7617 25.315 26.7617 20.356C26.7617 19.3989 26.6109 18.4765 26.3326 17.6105H33.7636C33.4854 18.4765 33.3345 19.3989 33.3345 20.356C33.3345 25.315 37.369 29.3494 42.328 29.3494C44.4798 29.3494 46.5042 28.6 48.1065 27.249V45.0548C48.0732 45.3282 47.9191 45.4589 47.6442 45.4467C46.7045 45.2887 46.0835 44.9448 45.426 44.5806C43.5316 43.5316 41.4101 43.1288 39.2733 43.6477C39.5156 42.8243 39.6417 41.9658 39.6417 41.1033C39.6417 36.1443 35.6072 32.1099 30.6482 32.1099C25.6893 32.1099 21.6549 36.1444 21.6549 41.1033C21.6549 42.2258 21.857 43.3123 22.2565 44.3428C19.8372 45.6246 17.46 45.9768 15.0073 44.6203C15.4775 43.5126 15.7243 42.3109 15.7243 41.1033C15.7243 36.1443 11.6898 32.1099 6.73085 32.1099C5.75321 32.1099 4.80319 32.2639 3.8934 32.5673V26.9588C3.8934 26.5381 3.55245 26.197 3.13168 26.197C2.71091 26.197 2.36996 26.5381 2.36996 26.9588V45.0547C2.36996 46.2235 3.45587 47.143 4.6083 46.9489C5.80531 46.7477 6.60593 46.3044 7.3122 45.9133C9.62579 44.6323 11.9533 44.6706 14.1974 45.9133C16.887 47.4026 19.8688 47.4027 22.5584 45.9133C24.8005 44.6718 27.1444 44.6403 29.443 45.9133C32.4037 47.5527 35.3323 47.1852 38.2604 45.6649C40.3344 44.5753 42.6876 44.8056 44.6878 45.9133C45.3941 46.3044 46.1946 46.7476 47.3914 46.9489C48.5346 47.1415 49.6298 46.2171 49.6298 45.0547V17.469C50.9995 17.0559 52 15.7832 52 14.2807V4.29956C52 2.46351 50.5063 0.969727 48.6703 0.969727ZM13.6421 43.9382C11.318 43.0036 8.71457 43.3954 6.57434 44.5806C5.91663 44.9447 5.29557 45.2887 4.35571 45.4467C4.11673 45.4867 3.8934 45.2969 3.8934 45.0548V34.1913C4.79223 33.8208 5.74448 33.6333 6.73085 33.6333C10.8498 33.6333 14.2009 36.9844 14.2009 41.1033C14.2009 42.0753 14.0092 43.0425 13.6421 43.9382ZM23.6603 43.7484C23.3403 42.9063 23.1784 42.0195 23.1784 41.1033C23.1784 36.9843 26.5293 33.6333 30.6483 33.6333C34.7673 33.6333 38.1183 36.9844 38.1183 41.1033C38.1183 42.258 37.8487 43.4039 37.3368 44.4318C34.9591 45.7248 32.5673 45.9019 30.1813 44.5806C29.2073 44.0413 28.1035 43.43 26.001 43.43C25.1328 43.43 24.3724 43.5323 23.6603 43.7484ZM50.4766 14.2807C50.4766 15.2767 49.6662 16.0871 48.6703 16.0871H46.8474C46.4849 11.0845 42.2992 7.12502 37.2057 7.12502C32.1122 7.12502 27.9265 11.0844 27.564 16.0871H3.32973C2.3337 16.0871 1.52344 15.2767 1.52344 14.2807V4.29956C1.52344 3.30353 2.3338 2.49316 3.32973 2.49316H5.15663C5.54633 7.46922 9.71994 11.399 14.7943 11.399C19.8687 11.399 24.0423 7.46912 24.432 2.49316H48.6703C49.6663 2.49316 50.4766 3.30353 50.4766 4.29956V14.2807ZM42.328 27.8259C38.209 27.8259 34.858 24.4748 34.858 20.3559C34.858 19.3867 35.0456 18.461 35.3829 17.6104H48.1065V25.0877C46.6797 26.8312 44.5879 27.8259 42.328 27.8259ZM45.3194 16.0871H29.0918C29.4505 11.9254 32.9527 8.64846 37.2057 8.64846C41.4587 8.64846 44.9608 11.9256 45.3194 16.0871ZM25.2383 20.356C25.2383 24.4749 21.8873 27.826 17.7684 27.826C13.6494 27.826 10.2983 24.4749 10.2983 20.356C10.2983 19.3868 10.4859 18.4611 10.8233 17.6105H24.7133C25.0507 18.461 25.2383 19.3868 25.2383 20.356ZM22.9032 2.49316C22.5178 6.62808 19.0282 9.87554 14.7943 9.87554C10.5604 9.87554 7.07078 6.62808 6.68545 2.49316H22.9032Z" fill="#BE3455"/>
</svg>
