<svg width="57" height="45" viewBox="0 0 57 45" fill="none" xmlns="http://www.w3.org/2000/svg">
<path d="M50.4688 39.1797H8.76953C8.57994 39.1797 8.39812 39.1044 8.26406 38.9703C8.13 38.8363 8.05469 38.6544 8.05469 38.4648V6.53516C8.05469 6.34557 8.13 6.16374 8.26406 6.02969C8.39812 5.89563 8.57994 5.82031 8.76953 5.82031H50.4688C50.6583 5.82031 50.8402 5.89563 50.9742 6.02969C51.1083 6.16374 51.1836 6.34557 51.1836 6.53516V38.4648C51.1836 38.6544 51.1083 38.8363 50.9742 38.9703C50.8402 39.1044 50.6583 39.1797 50.4688 39.1797ZM9.48438 37.75H49.7539V7.25H9.48438V37.75Z" fill="#BE3455"/>
<path d="M50.4688 39.1796H8.76953C8.57994 39.1796 8.39812 39.1043 8.26406 38.9702C8.13 38.8362 8.05469 38.6544 8.05469 38.4648V30.1119C8.05467 29.9353 8.12003 29.765 8.23816 29.6337L22.3802 13.9201C22.709 13.5644 23.0664 13.5644 23.4429 13.9201L32.708 24.2151L39.4971 13.9655C39.5595 13.8713 39.6443 13.794 39.7439 13.7405C39.8435 13.687 39.9548 13.659 40.0678 13.659C40.1809 13.659 40.2922 13.687 40.3918 13.7405C40.4914 13.794 40.5761 13.8713 40.6386 13.9655L51.0645 29.7063C51.1421 29.8233 51.1835 29.9606 51.1836 30.1011V38.4648C51.1836 38.6544 51.1083 38.8362 50.9742 38.9702C50.8402 39.1043 50.6583 39.1796 50.4688 39.1796ZM9.48438 37.7499H49.7539V30.3163L40.0678 15.6928L33.3902 25.7743C32.9551 26.4316 32.4108 26.0221 32.2629 25.8577L22.9115 15.4669L9.48438 30.3862V37.7499Z" fill="#BE3455"/>
<path d="M14.1309 16.0664C13.4004 16.0664 12.6863 15.8498 12.0789 15.444C11.4716 15.0381 10.9982 14.4613 10.7186 13.7864C10.4391 13.1116 10.366 12.369 10.5085 11.6525C10.651 10.9361 11.0027 10.278 11.5193 9.76145C12.0358 9.24492 12.6939 8.89316 13.4103 8.75066C14.1268 8.60815 14.8694 8.68129 15.5442 8.96083C16.2191 9.24037 16.7959 9.71376 17.2018 10.3211C17.6076 10.9285 17.8242 11.6426 17.8242 12.373C17.8231 13.3523 17.4337 14.2911 16.7413 14.9835C16.0489 15.6759 15.1101 16.0653 14.1309 16.0664ZM14.1309 10.1094C13.6831 10.1094 13.2455 10.2421 12.8732 10.4909C12.501 10.7396 12.2108 11.0931 12.0395 11.5068C11.8682 11.9204 11.8233 12.3756 11.9107 12.8147C11.998 13.2538 12.2136 13.6571 12.5302 13.9737C12.8468 14.2903 13.2501 14.5059 13.6892 14.5932C14.1283 14.6806 14.5835 14.6357 14.9971 14.4644C15.4108 14.2931 15.7643 14.0029 16.013 13.6307C16.2618 13.2584 16.3945 12.8208 16.3945 12.373C16.3939 11.7729 16.1552 11.1975 15.7308 10.7731C15.3064 10.3487 14.731 10.11 14.1309 10.1094Z" fill="#BE3455"/>
<path d="M55.3066 44.541H51.0176V43.1113H54.5918V1.88867H17.4199V0.458984H55.3126C55.5004 0.459519 55.6804 0.534377 55.8133 0.667203C55.9461 0.80003 56.021 0.980027 56.0215 1.16787V43.8076C56.0274 43.9038 56.013 44.0003 55.9794 44.0907C55.9459 44.1811 55.8937 44.2635 55.8264 44.3325C55.7591 44.4016 55.6781 44.4558 55.5886 44.4917C55.4991 44.5276 55.403 44.5444 55.3066 44.541ZM1.68383 44.541C1.49693 44.5405 1.31784 44.466 1.18569 44.3338C1.05353 44.2017 0.97905 44.0226 0.978516 43.8357V38.8223H2.4082V43.1113H50.0645V44.541H1.68383ZM2.4082 37.8691H0.978516V1.15179C0.97905 0.968209 1.05221 0.792302 1.18202 0.662492C1.31183 0.532682 1.48774 0.459519 1.67132 0.458984H14.084V1.88867H2.4082V37.8691ZM16.4668 1.88867H15.0371V0.458984H16.4668V1.88867Z" fill="#BE3455"/>
</svg>
