<svg width="46" height="46" viewBox="0 0 46 46" fill="none" xmlns="http://www.w3.org/2000/svg">
<path d="M43.3047 23.1577V6.06445C43.3047 2.72047 40.5842 0 37.2402 0H6.06445C2.72047 0 0 2.72047 0 6.06445V9.24861C0 9.62083 0.301605 9.92243 0.673828 9.92243C1.04605 9.92243 1.34766 9.62083 1.34766 9.24861V6.06445C1.34766 3.46366 3.46366 1.34766 6.06445 1.34766H37.2402C39.841 1.34766 41.957 3.46366 41.957 6.06445V18.7861C41.0569 18.9284 40.2281 19.3535 39.5801 20.0158C38.7954 20.818 38.3633 21.8778 38.3633 23C38.3633 23.0299 38.3649 23.0599 38.3655 23.0898H35.1289C33.2711 23.0898 31.7598 24.6012 31.7598 26.459V29.1543C31.7598 31.7551 29.6438 33.8711 27.043 33.8711C24.4422 33.8711 22.3262 31.7551 22.3262 29.1543C22.3262 28.7821 22.0246 28.4805 21.6523 28.4805C21.2801 28.4805 20.9785 28.7821 20.9785 29.1543V41.1113C20.0954 41.2509 19.2801 41.6639 18.6367 42.3064C17.9919 42.9504 17.5777 43.7673 17.4378 44.6523H6.06445C3.46366 44.6523 1.34766 42.5363 1.34766 39.9355V27.2139C3.38172 26.8898 4.94141 25.1238 4.94141 23C4.94141 20.8762 3.38172 19.1102 1.34766 18.7861V11.944C1.34766 11.5718 1.04605 11.2702 0.673828 11.2702C0.301605 11.2702 0 11.5718 0 11.944V39.9355C0 43.2795 2.72047 46 6.06445 46H37.2402C40.5842 46 43.3047 43.2795 43.3047 39.9355V34.194C44.9287 33.1047 46 31.2525 46 29.1543V26.459C46 24.8319 44.8407 23.4707 43.3047 23.1577ZM3.59375 23C3.59375 24.3782 2.63395 25.5365 1.34766 25.8415V20.1585C2.63395 20.4635 3.59375 21.6218 3.59375 23ZM39.7109 23C39.7109 21.6346 40.6747 20.4681 41.957 20.16V23.0898H39.7132C39.7123 23.0599 39.7109 23.03 39.7109 23ZM20.9785 42.4837V44.6523H18.8099C19.0603 43.5732 19.8996 42.7341 20.9785 42.4837ZM44.6523 29.1543C44.6523 31.7551 42.5363 33.8711 39.9355 33.8711H37.5322C37.16 33.8711 36.8584 34.1727 36.8584 34.5449C36.8584 34.9171 37.16 35.2188 37.5322 35.2188H39.9355C40.6442 35.2188 41.3244 35.0954 41.957 34.8711V39.9355C41.957 42.5363 39.841 44.6523 37.2402 44.6523H22.3262V32.9621C23.4389 34.3377 25.1399 35.2188 27.043 35.2188H34.8369C35.2091 35.2188 35.5107 34.9171 35.5107 34.5449C35.5107 34.1727 35.2091 33.8711 34.8369 33.8711H30.8507C32.2264 32.7584 33.1074 31.0574 33.1074 29.1543V26.459C33.1074 25.3444 34.0143 24.4375 35.1289 24.4375H42.6309C43.7455 24.4375 44.6523 25.3444 44.6523 26.459V29.1543Z" fill="#BE3455"/>
<path d="M17.3848 23C17.3848 25.3531 19.2992 27.2676 21.6523 27.2676C24.0054 27.2676 25.9199 25.3531 25.9199 23C25.9199 20.6469 24.0054 18.7324 21.6523 18.7324C19.2992 18.7324 17.3848 20.6469 17.3848 23ZM21.6523 20.0801C23.2624 20.0801 24.5723 21.3899 24.5723 23C24.5723 24.6101 23.2624 25.9199 21.6523 25.9199C20.0423 25.9199 18.7324 24.6101 18.7324 23C18.7324 21.3899 20.0423 20.0801 21.6523 20.0801Z" fill="#BE3455"/>
<path d="M11.1631 29.8955C8.80999 29.8955 6.89551 31.81 6.89551 34.1631C6.89551 36.5162 8.80999 38.4307 11.1631 38.4307C13.5162 38.4307 15.4307 36.5162 15.4307 34.1631C15.4307 31.81 13.5162 29.8955 11.1631 29.8955ZM11.1631 37.083C9.553 37.083 8.24316 35.7732 8.24316 34.1631C8.24316 32.553 9.553 31.2432 11.1631 31.2432C12.7732 31.2432 14.083 32.553 14.083 34.1631C14.083 35.7732 12.7732 37.083 11.1631 37.083Z" fill="#BE3455"/>
<path d="M16.1254 6.94141C15.0719 6.94141 14.2148 7.79852 14.2148 8.85202C14.2148 9.22425 14.5164 9.52585 14.8887 9.52585C15.2609 9.52585 15.5625 9.22425 15.5625 8.85202C15.5625 8.54161 15.8151 8.28906 16.1254 8.28906C16.4357 8.28906 16.6882 8.54161 16.6882 8.85202C16.6882 9.22425 16.9898 9.52585 17.3621 9.52585C17.7343 9.52585 18.0359 9.22425 18.0359 8.85202C18.0358 7.79852 17.1788 6.94141 16.1254 6.94141Z" fill="#BE3455"/>
<path d="M26.6172 8.85202C26.6172 8.54161 26.8697 8.28906 27.1801 8.28906C27.4904 8.28906 27.7429 8.54161 27.7429 8.85202C27.7429 9.22425 28.0445 9.52585 28.4168 9.52585C28.789 9.52585 29.0906 9.22425 29.0906 8.85202C29.0906 7.79852 28.2336 6.94141 27.1801 6.94141C26.1266 6.94141 25.2695 7.79852 25.2695 8.85202C25.2695 9.22425 25.5711 9.52585 25.9434 9.52585C26.3156 9.52585 26.6172 9.22425 26.6172 8.85202Z" fill="#BE3455"/>
<path d="M21.6527 11.5689C22.3502 11.5689 23.0134 11.2669 23.4725 10.7401C23.7171 10.4595 23.6878 10.034 23.4072 9.7894C23.1266 9.54484 22.7011 9.57413 22.4565 9.85472C22.2535 10.0877 21.9605 10.2213 21.6527 10.2213C21.3449 10.2213 21.0518 10.0877 20.8488 9.85472C20.6042 9.57413 20.1786 9.54502 19.8981 9.7894C19.6176 10.034 19.5883 10.4595 19.8328 10.7401C20.2919 11.2668 20.9551 11.5689 21.6527 11.5689Z" fill="#BE3455"/>
</svg>
