<svg width="170" height="68" viewBox="0 0 170 68" fill="none" xmlns="http://www.w3.org/2000/svg">
<path fill-rule="evenodd" clip-rule="evenodd" d="M2.9203 15.8173C0.42295 9.92514 0.198751 9.12644 0.0870986 8.40058C-0.0250287 7.67502 -0.0250301 7.02265 0.0649091 6.4295C0.154789 5.8363 0.335032 5.30225 0.582186 4.75306C0.828926 4.20387 1.14264 3.6395 1.48205 3.15801C1.82146 2.67651 2.18577 2.27834 2.66958 1.88049C3.15303 1.48312 3.75597 1.08692 4.43283 0.779011C5.10969 0.471522 5.86094 0.252406 6.54676 0.140694C7.23216 0.029338 7.85259 0.0246753 8.47267 0.0986556C9.0927 0.172636 9.71236 0.324369 10.2386 0.508519C10.7645 0.69261 11.1969 0.908256 11.5885 1.148C11.98 1.38815 12.3311 1.65248 12.6631 1.9522C12.9947 2.25227 13.3073 2.58775 13.6 2.97349C13.8923 3.35959 14.1651 3.79556 14.4703 4.41986C14.7755 5.04421 15.1137 5.85696 16.7216 9.59472C18.3295 13.3329 21.2071 19.9962 24.0851 26.6594C26.2013 23.3696 28.318 20.0794 29.6604 18.0134C31.0025 15.9473 31.5712 15.1046 32.0928 14.4725C32.6143 13.8404 33.0888 13.4181 33.6606 13.0436C34.232 12.6696 34.9003 12.3427 35.5565 12.1216C36.2128 11.9009 36.8569 11.7853 37.4687 11.7464C38.0802 11.7079 38.659 11.7452 39.1666 11.8238C39.6742 11.9028 40.1101 12.0231 40.5441 12.1882C40.9781 12.3536 41.4101 12.5641 41.8274 12.8214C42.2442 13.0787 42.6459 13.3831 42.9962 13.6995C43.3465 14.016 43.6451 14.3449 43.9121 14.6855C44.1791 15.0264 44.4142 15.3787 45.7131 17.3676C47.0115 19.3566 49.3738 22.9815 51.7356 26.6068C54.8471 19.5224 57.9583 12.4384 59.6055 8.67571C61.2523 4.91304 61.4345 4.47203 61.6793 4.02483C61.9237 3.57762 62.2308 3.12378 62.6069 2.68975C62.9828 2.25619 63.4281 1.84202 63.9182 1.48588C64.4078 1.12974 64.9426 0.831567 65.4144 0.618644C65.8861 0.40578 66.2948 0.278082 66.6568 0.189685C67.0188 0.101348 67.3333 0.0523289 67.6887 0.0246827C68.044 -0.00254824 68.4394 -0.00881276 68.8236 0.0137907C69.2078 0.0363348 69.5807 0.0869534 69.9586 0.169477C70.3366 0.252 70.72 0.366437 71.1333 0.534984C71.5463 0.703887 71.9892 0.927308 72.3804 1.16746C72.7716 1.40803 73.1106 1.66568 73.4173 1.93811C73.724 2.21059 73.998 2.49864 74.2397 2.79171C74.4815 3.0852 74.6905 3.38372 74.8785 3.69862C75.0665 4.01353 75.2331 4.34479 75.3693 4.66509C75.5052 4.98545 75.6103 5.29488 75.6959 5.61441C75.7815 5.934 75.8469 6.26369 75.889 6.66148C75.9306 7.05968 75.9489 7.52633 75.9364 7.99573C75.9236 8.46553 75.8808 8.93767 75.7858 9.35806C75.6905 9.7788 75.5433 10.147 75.3647 10.576C75.186 11.0053 74.9762 11.4953 72.4785 17.2458C69.9805 22.9967 65.1952 34.0088 62.7283 39.6826C60.2613 45.3568 60.1134 45.6931 59.9461 46.0213C59.7783 46.3498 59.5915 46.6704 59.37 46.9884C59.1485 47.3068 58.8928 47.6225 58.655 47.8833C58.4168 48.1441 58.1965 48.3496 57.9279 48.5649C57.659 48.7801 57.3417 49.0046 56.9482 49.2265C56.5543 49.4488 56.0849 49.6683 55.6809 49.8236C55.2765 49.9793 54.9383 50.0708 54.5755 50.1397C54.2123 50.2086 53.8246 50.2545 53.451 50.2724C53.0769 50.2903 52.7169 50.2798 52.3234 50.235C51.9299 50.1903 51.5029 50.1105 51.1491 50.0225C50.7949 49.935 50.5131 49.8388 50.1756 49.6889C49.8378 49.5395 49.4438 49.3367 49.0235 49.0557C48.6031 48.775 48.1559 48.4161 47.7219 47.9565C47.2879 47.4972 46.8672 46.937 46.4744 46.3769C46.0817 45.8168 45.717 45.2575 44.2857 43.0599C42.8542 40.8627 40.3553 37.028 37.8569 33.193C35.0061 37.7015 32.1557 42.2103 30.6058 44.6317C29.0556 47.0535 28.8065 47.3878 28.5243 47.7058C28.2421 48.0238 27.9268 48.3247 27.5037 48.64C27.0806 48.9552 26.5489 49.2841 26.0667 49.5255C25.584 49.7668 25.1504 49.9201 24.7421 50.0299C24.3334 50.14 23.9496 50.2063 23.4697 50.2343C22.9894 50.2627 22.413 50.2522 21.8521 50.1797C21.2912 50.1078 20.7466 49.9735 20.2636 49.8057C19.7806 49.638 19.3598 49.4368 18.9157 49.1569C18.4712 48.8774 18.0037 48.5193 17.6095 48.1511C17.2152 47.7833 16.8937 47.4049 16.6119 46.9978C16.3297 46.5911 16.0868 46.1551 15.8178 45.5974C15.5489 45.0396 15.2538 44.3604 12.7211 38.5278C10.188 32.6951 5.4176 21.7099 2.9203 15.8173Z" fill="white"/>
<path fill-rule="evenodd" clip-rule="evenodd" d="M72.2145 41.2403C72.1102 41.7884 72.0623 42.3668 72.0759 42.9195C72.0896 43.4722 72.1639 43.9996 72.3064 44.541C72.4484 45.0824 72.6582 45.6379 72.8867 46.1089C73.1152 46.5799 73.3627 46.9659 73.6407 47.3252C73.9182 47.6844 74.2265 48.0164 74.5744 48.3263C74.922 48.6361 75.3097 48.9241 75.7549 49.1845C76.1998 49.445 76.7027 49.6785 77.1733 49.8474C77.6435 50.0163 78.0814 50.1211 78.4866 50.1869C78.8914 50.253 79.2635 50.2799 79.7177 50.2651C80.1716 50.2503 80.7079 50.1939 81.2641 50.0658C81.82 49.9381 82.396 49.7388 82.9028 49.5037C83.4096 49.2686 83.8467 48.9969 84.3114 48.6104C84.7762 48.2243 85.2685 47.7226 85.6348 47.275C86.0006 46.8274 86.2408 46.4335 86.5059 45.9061C86.771 45.3787 87.0605 44.7181 88.4641 41.4887C89.8673 38.2592 92.384 32.4617 94.9008 26.6637C97.6503 33.0335 100.399 39.4032 101.915 42.8296C103.431 46.2563 103.713 46.7398 104.063 47.2026C104.414 47.6658 104.832 48.1079 105.263 48.4765C105.693 48.8455 106.135 49.1406 106.639 49.3959C107.144 49.6516 107.711 49.8673 108.267 50.0121C108.823 50.1569 109.369 50.2308 109.952 50.2378C110.535 50.2448 111.156 50.1856 111.661 50.0957C112.166 50.0058 112.556 49.8855 112.955 49.7217C113.353 49.5578 113.761 49.3507 114.121 49.1312C114.481 48.9117 114.793 48.6802 115.106 48.4026C115.419 48.1251 115.732 47.802 116.013 47.4552C116.293 47.1088 116.543 46.7386 116.758 46.3494C116.973 45.9605 117.154 45.5518 117.296 45.1385C117.438 44.7255 117.541 44.3075 117.607 43.8338C117.673 43.3601 117.702 42.8311 117.692 42.3785C117.683 41.9258 117.636 41.5494 117.545 41.1353C117.453 40.7215 117.317 40.2696 117.143 39.8084C116.97 39.3475 116.759 38.8769 114.222 33.0354C111.685 27.1942 106.821 15.9813 104.284 10.1669C101.745 4.353 101.533 3.93687 101.293 3.55308C101.053 3.16972 100.786 2.81822 100.443 2.45823C100.101 2.09818 99.6833 1.72958 99.2664 1.42595C98.8492 1.12237 98.4319 0.883417 98.0353 0.696182C97.6386 0.509363 97.2623 0.373473 96.838 0.264905C96.4138 0.156278 95.942 0.074947 95.5174 0.0332997C95.0927 -0.00799159 94.7151 -0.00952852 94.3216 0.0212027C93.9281 0.0519932 93.5183 0.114223 93.1637 0.190932C92.8091 0.267998 92.5094 0.359461 92.0949 0.541238C91.6804 0.72337 91.1502 0.996646 90.6839 1.30141C90.2176 1.60658 89.8148 1.94326 89.4516 2.31612C89.0884 2.68941 88.7654 3.09849 88.4769 3.56402C88.1886 4.02991 87.9351 4.55225 85.3016 10.5768C82.6681 16.6017 77.6548 28.1287 75.0676 34.1513C72.4799 40.1739 72.3188 40.6923 72.2145 41.2403Z" fill="white"/>
<path fill-rule="evenodd" clip-rule="evenodd" d="M117.479 14.8507C114.897 8.63781 114.836 8.00142 114.86 7.34906C114.885 6.69712 114.994 6.02921 115.159 5.44028C115.323 4.8514 115.543 4.34108 115.791 3.88884C116.039 3.43653 116.316 3.04259 116.668 2.64599C117.021 2.24939 117.449 1.85078 117.905 1.51137C118.36 1.17196 118.844 0.892542 119.351 0.669118C119.858 0.44605 120.389 0.279468 120.9 0.172443C121.411 0.0654174 121.902 0.0183177 122.434 0.0268607C122.965 0.0354631 123.538 0.100402 124.071 0.217216C124.604 0.334326 125.098 0.503279 125.58 0.729788C126.062 0.956713 126.534 1.24125 126.938 1.53705C127.342 1.83285 127.679 2.14038 127.978 2.46305C128.276 2.78573 128.537 3.1236 128.794 3.54595C129.05 3.96865 129.303 4.4754 129.539 5.01563C129.775 5.55591 129.995 6.12961 132.469 11.8276C134.943 17.5259 139.67 28.3484 142.13 34.0028C144.589 39.6572 144.781 40.1425 144.925 40.6193C145.067 41.0961 145.161 41.5636 145.2 42.0505C145.239 42.5375 145.222 43.0439 145.15 43.5783C145.076 44.1131 144.947 44.6759 144.756 45.2153C144.564 45.7549 144.312 46.2706 144.032 46.7228C143.753 47.1756 143.447 47.5644 143.114 47.9155C142.78 48.2665 142.419 48.5795 142.074 48.8356C141.729 49.0917 141.4 49.291 141.003 49.4806C140.607 49.6701 140.143 49.8495 139.667 49.9823C139.19 50.115 138.701 50.2003 138.159 50.2306C137.618 50.2614 137.024 50.2372 136.468 50.1702C135.912 50.1033 135.394 49.9939 134.834 49.7573C134.275 49.5206 133.675 49.1571 133.177 48.792C132.68 48.4273 132.285 48.0618 131.927 47.6457C131.568 47.23 131.245 46.7645 130.974 46.2554C130.703 45.7463 130.485 45.1939 127.824 39.0231C125.163 32.8526 120.061 21.0636 117.479 14.8507Z" fill="white"/>
<path fill-rule="evenodd" clip-rule="evenodd" d="M154.212 4.7758C154.248 4.85482 154.283 4.93475 154.319 5.01538C154.555 5.55567 154.775 6.12936 157.249 11.8273C159.722 17.5257 164.449 28.3482 166.909 34.0026C169.369 39.6569 169.561 40.1422 169.704 40.619C169.847 41.0959 169.94 41.5634 169.979 42.0503C170.018 42.5372 170.002 43.0436 169.929 43.5781C169.856 44.1128 169.726 44.6756 169.535 45.2151C169.344 45.7546 169.091 46.2704 168.812 46.7226C168.532 47.1753 168.227 47.5642 167.893 47.9152C167.56 48.2663 167.199 48.5792 166.853 48.8353C166.508 49.0914 166.179 49.2907 165.783 49.4803C165.386 49.6699 164.923 49.8493 164.446 49.982C163.97 50.1148 163.48 50.2 162.939 50.2303C162.397 50.2611 161.803 50.237 161.248 50.17C160.691 50.1031 160.173 49.9937 159.614 49.757C159.054 49.5204 158.454 49.1569 157.957 48.7918C157.459 48.4271 157.065 48.0616 156.706 47.6455C156.347 47.2298 156.024 46.7643 155.754 46.2552C155.483 45.746 155.264 45.1937 152.694 39.2793C150.124 33.3654 145.202 22.0894 142.651 16.1949C141.09 12.5898 140.416 10.9979 140.101 10.1734C141.226 12.9328 143.935 14.878 147.098 14.878C151.271 14.878 154.653 11.4959 154.653 7.32383C154.653 6.4296 154.497 5.57191 154.212 4.7758ZM147.098 13.6589C150.597 13.6589 153.434 10.8226 153.434 7.32383C153.434 3.82505 150.597 0.98877 147.098 0.98877C143.6 0.98877 140.763 3.82505 140.763 7.32383C140.763 10.8226 143.6 13.6589 147.098 13.6589Z" fill="white"/>
<path d="M141.292 56.2295C142.899 56.2295 144.234 56.8087 145.291 57.9703C146.253 59.0272 146.734 60.2803 146.734 61.7266C146.734 63.1794 146.226 64.4489 145.209 65.5353C144.194 66.6216 142.886 67.1648 141.292 67.1648C139.689 67.1648 138.377 66.6216 137.362 65.5353C136.345 64.4489 135.838 63.1794 135.838 61.7266C135.838 60.2868 136.318 59.0369 137.281 57.9801C138.337 56.8119 139.676 56.2295 141.292 56.2295ZM141.286 57.5449C140.17 57.5449 139.214 57.9539 138.413 58.7752C137.611 59.5965 137.212 60.5912 137.212 61.756C137.212 62.5054 137.395 63.2057 137.758 63.8567C138.125 64.5046 138.619 65.0053 139.241 65.3587C139.859 65.7119 140.543 65.8887 141.286 65.8887C142.028 65.8887 142.712 65.7119 143.331 65.3587C143.952 65.0053 144.446 64.5046 144.813 63.8567C145.176 63.2057 145.359 62.5054 145.359 61.756C145.359 60.5912 144.957 59.5965 144.152 58.7752C143.35 57.9539 142.395 57.5449 141.286 57.5449Z" fill="white"/>
<path d="M118.244 58.7216C117.372 57.7975 116.252 57.3249 114.865 57.3249C113.589 57.3249 112.528 57.7339 111.684 58.5487C110.843 59.3633 110.421 60.3513 110.421 61.5164C110.421 62.2754 110.614 62.9887 111.004 63.6563C111.39 64.3236 111.923 64.8441 112.6 65.214C113.274 65.5835 114.034 65.7668 114.875 65.7668C116.225 65.7668 117.261 65.1902 118.275 64.3584C119.027 63.742 119.739 64.6682 119.299 65.2024C118.886 65.7039 118.313 66.0819 117.695 66.3853C116.852 66.7987 115.892 67.0036 114.816 67.0036C113.16 67.0036 111.789 66.4802 110.7 65.4363C109.61 64.3891 109.067 63.1197 109.067 61.621C109.067 60.6164 109.322 59.6807 109.832 58.817C110.339 57.953 111.04 57.279 111.93 56.7947C112.823 56.3105 113.818 56.0684 114.921 56.0684C115.614 56.0684 116.282 56.173 116.926 56.3824C117.567 56.5917 118.114 56.8673 118.562 57.2037C118.825 57.4011 119.086 57.5999 119.281 57.8753C119.81 58.6256 118.832 59.3442 118.244 58.7216Z" fill="white"/>
<path d="M94.2095 64.708C93.9227 65.1454 93.6191 65.4968 93.2813 65.8036C92.7946 66.2461 92.2472 66.5856 91.6385 66.818C91.0266 67.0504 90.3396 67.1648 89.5708 67.1648C87.8626 67.1648 86.5308 66.6085 85.5689 65.496C84.607 64.3837 84.1257 63.1269 84.1257 61.7264C84.1257 60.4081 84.5347 59.23 85.3498 58.1994C86.3802 56.8872 87.7643 56.2295 89.4953 56.2295C91.2785 56.2295 92.7051 56.9036 93.7688 58.2483C94.5246 59.1972 94.9106 60.3817 94.9238 61.8051H85.5003C85.5264 63.0125 85.9157 64.0006 86.6649 64.7697C87.4175 65.5418 88.3467 65.9279 89.4495 65.9279C89.9831 65.9279 90.5032 65.8363 91.0072 65.6529C91.5111 65.4697 91.9396 65.2274 92.2929 64.9233C92.5508 64.7013 92.7936 64.368 93.0994 63.9609C93.6545 63.2216 94.66 64.0211 94.2095 64.708ZM93.4515 60.6469C93.2713 59.9301 93.0095 59.3609 92.666 58.9321C92.3192 58.5036 91.8644 58.1599 91.2982 57.8983C90.7324 57.6365 90.1367 57.5054 89.515 57.5054C88.4842 57.5054 87.6009 57.8328 86.8614 58.4907C86.3182 58.9717 85.9123 59.6879 85.6343 60.647L93.4515 60.6469Z" fill="white"/>
<path d="M71.073 55.4629L71.0731 62.2266L70.815 63.558L70.4114 64.4185L69.8068 65.3228C69.2439 66.0067 68.7007 66.4038 67.9242 66.715C67.0495 67.0656 66.3841 67.1653 65.5563 67.1653C64.084 67.1653 62.8242 66.6319 61.7804 65.5653C60.7364 64.4954 60.2162 63.1997 60.2162 61.6684C60.2162 60.173 60.7432 58.8903 61.7968 57.8269C62.8469 56.7635 64.1134 56.23 65.5956 56.23C66.4498 56.23 67.2218 56.4132 67.9154 56.7766C68.606 57.1398 69.2147 57.6861 69.7381 58.4157V55.4597C69.7349 55.0228 70.1088 54.7939 70.4039 54.7939C70.6848 54.7939 71.073 55.0166 71.073 55.4629ZM65.7002 57.5258C64.9541 57.5258 64.2639 57.709 63.6358 58.0754C63.0041 58.4387 62.5033 58.9524 62.1306 59.6133C61.7573 60.2744 61.571 60.9746 61.571 61.714C61.571 62.4439 61.7573 63.1439 62.1339 63.8113C62.5099 64.4789 63.0138 64.9991 63.6488 65.3689C64.2836 65.7419 64.9642 65.9285 65.6905 65.9285C66.4201 65.9285 67.1172 65.7451 67.7715 65.3756C68.4292 65.0058 68.9331 64.5083 69.2866 63.877C69.6399 63.2485 69.8165 62.5385 69.8165 61.7501C69.8165 60.5492 69.4205 59.5447 68.6255 58.7366C67.8337 57.9282 66.8586 57.5258 65.7002 57.5258Z" fill="white"/>
<path d="M164.485 60.7767C164.485 60.2324 164.474 59.7536 164.641 59.2338C164.788 58.8239 164.906 58.5732 165.17 58.2126C165.311 58.0036 165.573 57.7294 165.863 57.4535C166.068 57.2586 166.566 56.9269 166.821 56.7813C167.076 56.6357 167.652 56.4296 167.951 56.3494C168.25 56.2694 168.487 56.2363 168.779 56.2291C169.015 56.2233 169.092 56.2045 169.481 56.2584C169.674 56.348 169.733 56.4359 169.86 56.5247C169.933 56.6497 169.978 56.7783 169.999 56.9518C169.962 57.1804 169.941 57.2372 169.847 57.3958C169.625 57.5851 169.532 57.6281 169.286 57.6727C169.129 57.6727 168.972 57.6727 168.815 57.6727C168.422 57.6727 168.053 57.7455 167.711 57.8914C167.368 58.037 167.066 58.2412 166.803 58.5038C166.541 58.7663 166.336 59.0687 166.191 59.4114C166.045 59.7541 165.972 60.122 165.972 60.5158V67.1646H164.485C164.485 65.0353 164.485 62.9059 164.485 60.7767Z" fill="white"/>
</svg>
