<svg width="54" height="54" viewBox="0 0 54 54" fill="none" xmlns="http://www.w3.org/2000/svg">
<path d="M19.3182 30.9071C19.6464 31.2301 19.6464 31.7537 19.3182 32.0767L11.1258 40.1402C10.9618 40.3017 10.7466 40.3824 10.5316 40.3824C9.7897 40.3824 9.40673 39.493 9.93749 38.9706L18.1299 30.9071C18.4581 30.5841 18.9901 30.5841 19.3182 30.9071ZM36.8701 30.9071C36.5418 30.5841 36.0099 30.5841 35.6817 30.9071C35.3535 31.2301 35.3535 31.7537 35.6817 32.0767L43.8741 40.1402C44.2024 40.4632 44.7343 40.4632 45.0625 40.1402C45.3907 39.8172 45.3907 39.2936 45.0625 38.9706L36.8701 30.9071ZM50 15.5027V40.4973C50 42.9801 47.9478 45 45.4253 45H9.57469C7.05217 45 5 42.9801 5 40.4973V15.5027C5 13.0199 7.05217 11 9.57469 11H45.4253C47.9478 11 50 13.0199 50 15.5027ZM48.3195 15.5027C48.3195 13.9319 47.0212 12.6541 45.4253 12.6541H9.57469C7.97887 12.6541 6.6805 13.9319 6.6805 15.5027V18.3237L25.9094 27.5149C26.9202 27.9981 28.0797 27.9982 29.0906 27.5149L42.5357 21.0883C42.9535 20.8888 43.4559 21.0601 43.6585 21.4709C43.8613 21.8817 43.6872 22.3766 43.2698 22.5761L29.8247 29.0028C28.3473 29.7089 26.6527 29.709 25.1752 29.0028L6.6805 20.1624V40.4973C6.6805 42.0681 7.97887 43.3459 9.57469 43.3459H45.4253C47.0212 43.3459 48.3195 42.0681 48.3195 40.4973V15.5027Z" fill="white"/>
</svg>
