<svg width="25" height="25" viewBox="0 0 25 25" fill="none" xmlns="http://www.w3.org/2000/svg">
<path d="M24.8335 23.8258C24.8104 23.7988 24.7851 23.7735 24.758 23.7503L13.4796 12.4651L24.7649 1.18677C25.0364 0.915281 25.0364 0.475111 24.7649 0.203619C24.4934 -0.0678729 24.0532 -0.0678729 23.7817 0.203619L12.5034 11.4889L1.22513 0.203619C0.953643 -0.0678729 0.513473 -0.0678729 0.241981 0.203619C-0.0295104 0.475111 -0.0295104 0.915281 0.241981 1.18677L11.5272 12.4651L0.24203 23.7434C-0.0483985 23.9921 -0.0822315 24.4292 0.166478 24.7196C0.415187 25.01 0.852241 25.0439 1.14267 24.7952C1.16974 24.772 1.195 24.7467 1.21822 24.7196L12.5035 13.4413L23.7818 24.7265C24.0305 25.017 24.4675 25.0508 24.758 24.8021C25.0484 24.5533 25.0822 24.1163 24.8335 23.8258Z" fill="#E8B5C1"/>
</svg>
