<svg width="48" height="48" viewBox="0 0 48 48" fill="none" xmlns="http://www.w3.org/2000/svg">
<path d="M24 48C37.2548 48 48 37.2548 48 24C48 10.7452 37.2548 0 24 0C10.7452 0 0 10.7452 0 24C0 37.2548 10.7452 48 24 48Z" fill="#4F61FE"/>
<path d="M15.6522 28.6251C18.4319 31.9353 21.7779 34.5416 25.5971 36.3857C27.0511 37.0722 28.9957 37.8866 31.1622 38.0263C31.2965 38.0321 31.425 38.0379 31.5593 38.0379C33.0134 38.0379 34.1813 37.5376 35.1332 36.5079C35.139 36.5021 35.1507 36.4904 35.1565 36.4788C35.4952 36.0715 35.8806 35.7051 36.2835 35.3153C36.558 35.0535 36.8384 34.78 37.107 34.5008C38.3508 33.2093 38.3508 31.5687 37.0953 30.318L33.5857 26.8216C32.99 26.205 32.2776 25.8792 31.5301 25.8792C30.7827 25.8792 30.0644 26.205 29.4512 26.8158L27.3606 28.8985C27.1679 28.788 26.9694 28.6891 26.7825 28.596C26.549 28.4796 26.3329 28.3691 26.1401 28.247C24.2364 27.0427 22.5079 25.472 20.8553 23.4533C20.0202 22.4003 19.4596 21.516 19.0684 20.6143C19.6173 20.1198 20.1312 19.6021 20.6276 19.096C20.8027 18.9156 20.9838 18.7353 21.1648 18.5549C21.7955 17.9266 22.1342 17.1994 22.1342 16.4606C22.1342 15.7218 21.8013 14.9946 21.1648 14.3663L19.4246 12.6327C19.2203 12.4291 19.0275 12.2313 18.829 12.0277C18.4436 11.6321 18.0406 11.2248 17.6435 10.8583C17.0421 10.2707 16.3355 9.9624 15.588 9.9624C14.8464 9.9624 14.134 10.2707 13.5091 10.8641L11.3251 13.0399C10.5309 13.8311 10.0812 14.7909 9.98787 15.9021C9.87684 17.2925 10.1339 18.7701 10.7995 20.5562C11.8215 23.3194 13.3631 25.885 15.6522 28.6251ZM11.4127 16.0243C11.4828 15.2506 11.7806 14.6048 12.3412 14.0463L14.5136 11.8822C14.8522 11.5564 15.2259 11.3877 15.588 11.3877C15.9442 11.3877 16.3063 11.5564 16.6391 11.8938C17.0304 12.2545 17.3983 12.6327 17.7954 13.034C17.9939 13.2377 18.1983 13.4413 18.4027 13.6507L20.1429 15.3843C20.5049 15.745 20.6918 16.1116 20.6918 16.4722C20.6918 16.8329 20.5049 17.1994 20.1429 17.5601C19.9619 17.7405 19.7809 17.9266 19.5998 18.107C19.0567 18.6538 18.5487 19.1716 17.9881 19.6661C17.9764 19.6777 17.9705 19.6835 17.9589 19.6952C17.4742 20.178 17.5501 20.6376 17.6669 20.9866C17.6728 21.0041 17.6786 21.0157 17.6845 21.0332C18.1341 22.1094 18.7589 23.1333 19.7341 24.355C21.486 26.5075 23.3313 28.1771 25.3635 29.4628C25.6146 29.6257 25.8832 29.7537 26.1343 29.8817C26.3679 29.9981 26.584 30.1085 26.7766 30.2307C26.8 30.2424 26.8176 30.254 26.8409 30.2656C27.0336 30.3646 27.2205 30.411 27.4073 30.411C27.8745 30.411 28.1782 30.1143 28.2774 30.0154L30.4615 27.8397C30.8001 27.5023 31.1681 27.3219 31.5301 27.3219C31.974 27.3219 32.336 27.5953 32.5637 27.8397L36.085 31.3419C36.7857 32.04 36.7799 32.7963 36.0675 33.5351C35.8222 33.7968 35.5653 34.0471 35.2908 34.3088C34.882 34.7044 34.4557 35.1117 34.0704 35.5712C33.3987 36.2926 32.5988 36.63 31.5651 36.63C31.4659 36.63 31.3607 36.6242 31.2615 36.6184C29.3461 36.4963 27.565 35.7515 26.2277 35.1175C22.5955 33.3664 19.4071 30.8823 16.7618 27.7292C14.5836 25.1171 13.1178 22.6854 12.1485 20.0791C11.547 18.4793 11.3193 17.1936 11.4127 16.0243Z" fill="white"/>
</svg>
