<svg width="48" height="48" viewBox="0 0 48 48" fill="none" xmlns="http://www.w3.org/2000/svg">
<g clip-path="url(#clip0_404_20)">
<path d="M24 48C37.2548 48 48 37.2548 48 24C48 10.7452 37.2548 0 24 0C10.7452 0 0 10.7452 0 24C0 37.2548 10.7452 48 24 48Z" fill="#1CC8FF"/>
<path d="M34.0187 12.1327L10.9632 22.8301C10.3495 23.1149 10.0084 23.7546 10.0002 24.4296C9.992 25.0989 10.3119 25.7387 10.9622 26.0359C12.174 26.5899 13.6706 27.0496 15.2935 27.3471C15.6895 27.4198 16.0335 27.4182 16.4399 27.2986C16.8601 27.1748 17.3684 26.9185 18.079 26.442C19.7045 25.3514 24.6695 21.439 27.7755 18.856C28.1116 18.5763 28.4268 18.3836 28.7059 18.2915C28.9466 18.2121 29.3513 18.1535 29.6178 18.4748C29.8746 18.7845 29.778 19.1841 29.6806 19.4203C29.5667 19.6966 29.358 19.9976 29.0703 20.3049C28.7007 20.6994 28.2945 21.1292 27.8678 21.5808C26.7308 22.7842 25.4477 24.142 24.3211 25.397C23.5466 26.2596 22.8537 27.0654 22.338 27.7316C22.08 28.0651 21.8715 28.3568 21.7208 28.5989C21.5631 28.8521 21.494 29.0114 21.476 29.089C21.4286 29.2967 21.4791 29.5818 21.6826 29.9556C21.8825 30.3228 22.1974 30.7142 22.5699 31.0996C23.3133 31.8686 24.2167 32.5435 24.6708 32.8709C26.4889 34.1805 28.5147 35.4386 29.8828 36.2576C31.2003 37.0461 32.8414 36.1688 33.0958 34.4779L36.1536 14.039C36.2004 13.725 36.1699 13.4033 36.0661 13.1082M34.0187 12.1327C34.0188 12.1327 34.0187 12.1327 34.0187 12.1327ZM34.0187 12.1327C34.2728 12.0149 34.5493 11.9748 34.8201 12.0153C35.0911 12.0557 35.3502 12.1759 35.5698 12.3667C35.7897 12.5578 35.9622 12.8131 36.0661 13.1082M36.0661 13.1082L36.5 12.9444" stroke="white" stroke-width="1.5"/>
</g>
<defs>
<clipPath id="clip0_404_20">
<rect width="48" height="48" fill="white"/>
</clipPath>
</defs>
</svg>
