<svg width="54" height="54" viewBox="0 0 54 54" fill="none" xmlns="http://www.w3.org/2000/svg">
<g clip-path="url(#clip0_98_784)">
<path d="M35.7142 21.7721L35.7145 21.7718C36.1816 21.2899 36.5202 20.8182 36.7051 20.385C36.8632 20.0146 37.0201 19.388 36.6032 18.9024C36.1705 18.3986 35.5133 18.4906 35.1226 18.6151C34.6693 18.7594 34.1576 19.0616 33.6118 19.5002C28.5686 23.5503 20.5071 29.6849 17.8678 31.3949C16.7139 32.1421 15.8887 32.544 15.2063 32.7381C14.5465 32.9257 13.988 32.9282 13.345 32.8142L13.3448 32.8142C10.7097 32.3476 8.27994 31.6269 6.31234 30.7582L6.31222 30.7582C5.25623 30.2922 4.737 29.289 4.75024 28.2395C4.76359 27.1812 5.31752 26.1781 6.31397 25.7315L43.7489 8.95813C43.749 8.95812 43.749 8.9581 43.749 8.95809C44.1616 8.77333 44.6103 8.71056 45.0501 8.77397C45.4901 8.83741 45.9108 9.02576 46.2674 9.32502C46.6244 9.62461 46.9045 10.0249 47.0731 10.4876L47.7777 10.2307L47.0731 10.4876C47.2418 10.9504 47.2913 11.4549 47.2153 11.9471L42.2503 43.9952C41.8373 46.6465 39.1727 48.0222 37.0334 46.7857C34.812 45.5016 31.5228 43.5289 28.5707 41.4754C27.8335 40.962 26.3666 39.9038 25.1596 38.698C24.5547 38.0937 24.0435 37.48 23.7189 36.9043C23.3884 36.3182 23.3064 35.8711 23.3835 35.5455C23.4127 35.4238 23.5248 35.174 23.7809 34.7769C24.0256 34.3974 24.3641 33.9399 24.7831 33.417C25.6204 32.3724 26.7455 31.109 28.0029 29.7564C29.8322 27.7886 31.9155 25.6595 33.7617 23.7727C34.4546 23.0646 35.1141 22.3906 35.7142 21.7721Z" stroke="white" stroke-width="1.5"/>
</g>
<defs>
<clipPath id="clip0_98_784">
<rect width="54" height="54" fill="white"/>
</clipPath>
</defs>
</svg>
