<svg width="54" height="54" viewBox="0 0 54 54" fill="none" xmlns="http://www.w3.org/2000/svg">
<path d="M27 6C15.4201 6 6 15.4201 6 27C6 30.9504 7.09765 34.7853 9.17988 38.1155C8.35038 41.0215 6.85212 46.5187 6.83596 46.576C6.75842 46.8603 6.84162 47.164 7.05404 47.3684C7.26646 47.5727 7.57338 47.6454 7.85285 47.5598L16.1769 44.9994C19.4376 46.9637 23.1715 48 27 48C38.5799 48 48 38.5799 48 27C48 15.4201 38.5799 6 27 6ZM27 46.3846C23.35 46.3846 19.7946 45.3645 16.7173 43.4357C16.5872 43.3542 16.4378 43.313 16.2884 43.313C16.2084 43.313 16.1285 43.3251 16.0509 43.3485L8.7825 45.5858C9.31638 43.6368 10.2759 40.1508 10.8324 38.2116C10.897 37.987 10.8607 37.7447 10.7339 37.5485C8.69365 34.409 7.61538 30.7614 7.61538 27C7.61538 16.3118 16.3118 7.61538 27 7.61538C37.6882 7.61538 46.3846 16.3118 46.3846 27C46.3846 37.6882 37.6882 46.3846 27 46.3846Z" fill="white"/>
<path d="M40.7187 31.9478C39.2277 31.1199 37.958 30.2896 37.0316 29.6838C36.324 29.2218 35.8127 28.8882 35.438 28.7C34.3904 28.1774 33.5964 28.5466 33.2944 28.8519C33.2564 28.8898 33.2225 28.931 33.1934 28.9746C32.1054 30.607 30.6847 32.1683 30.2687 32.2523C29.7882 32.1771 27.5387 30.8986 25.3031 29.0368C23.0205 27.1347 21.5844 25.3134 21.3736 24.0728C22.838 22.5656 23.3654 21.6174 23.3654 20.5383C23.3654 19.4261 20.7711 14.7827 20.3018 14.3134C19.8309 13.8433 18.7704 13.7698 17.1494 14.0929C16.9935 14.1244 16.8497 14.2011 16.7367 14.3134C16.5404 14.5097 11.9479 19.1919 14.1302 24.8667C16.5259 31.0948 22.6748 38.3342 30.5143 39.5102C31.4052 39.6434 32.2403 39.7097 33.0222 39.7097C37.6341 39.7097 40.356 37.3892 41.1225 32.7861C41.1799 32.4493 41.0175 32.1133 40.7187 31.9478ZM30.7542 37.9126C22.464 36.6695 17.2423 28.4561 15.6382 24.2868C14.0471 20.1514 16.9814 16.4643 17.718 15.6308C18.3173 15.529 18.9481 15.4862 19.2114 15.5274C19.7615 16.2923 21.666 19.8905 21.75 20.5383C21.75 20.9623 21.6119 21.5528 19.9674 23.198C19.8156 23.3491 19.7308 23.5542 19.7308 23.7691C19.7308 27.9981 28.6509 33.8652 30.2308 33.8652C31.6047 33.8652 33.3961 31.556 34.4162 30.0513C34.4752 30.0537 34.5746 30.0739 34.7159 30.145C35.0067 30.2912 35.5107 30.6199 36.1479 31.0367C36.9896 31.5867 38.1074 32.3169 39.4272 33.0737C38.8279 35.9571 37.1527 38.8737 30.7542 37.9126Z" fill="white"/>
</svg>
