<svg width="48" height="48" viewBox="0 0 48 48" fill="none" xmlns="http://www.w3.org/2000/svg">
<g clip-path="url(#clip0_403_14)">
<path d="M24 48C37.2548 48 48 37.2548 48 24C48 10.7452 37.2548 0 24 0C10.7452 0 0 10.7452 0 24C0 37.2548 10.7452 48 24 48Z" fill="#0CEB58"/>
<path d="M24.25 11C16.9436 11 11 16.9436 11 24.25C11 26.7425 11.6926 29.1622 13.0064 31.2634C12.483 33.0969 11.5376 36.5654 11.5275 36.6015C11.4785 36.7809 11.531 36.9725 11.665 37.1015C11.7991 37.2304 11.9927 37.2763 12.1691 37.2223L17.4211 35.6068C19.4785 36.8461 21.8344 37.5 24.25 37.5C31.5564 37.5 37.5 31.5564 37.5 24.25C37.5 16.9436 31.5564 11 24.25 11ZM24.25 36.4808C21.947 36.4808 19.7037 35.8371 17.7621 34.6201C17.68 34.5687 17.5858 34.5427 17.4915 34.5427C17.441 34.5427 17.3906 34.5504 17.3416 34.5651L12.7556 35.9768C13.0925 34.747 13.6979 32.5475 14.049 31.324C14.0898 31.1823 14.0669 31.0294 13.9869 30.9056C12.6996 28.9247 12.0192 26.6233 12.0192 24.25C12.0192 17.5063 17.5063 12.0192 24.25 12.0192C30.9937 12.0192 36.4808 17.5063 36.4808 24.25C36.4808 30.9937 30.9937 36.4808 24.25 36.4808Z" fill="white"/>
<path d="M32.9061 27.3716C31.9654 26.8492 31.1642 26.3254 30.5797 25.9431C30.1333 25.6516 29.8107 25.4411 29.5742 25.3224C28.9133 24.9927 28.4123 25.2256 28.2217 25.4182C28.1978 25.4421 28.1764 25.4681 28.158 25.4956C27.4715 26.5256 26.5751 27.5107 26.3127 27.5637C26.0095 27.5163 24.5902 26.7096 23.1796 25.5349C21.7394 24.3348 20.8333 23.1856 20.7003 22.4028C21.6242 21.4519 21.957 20.8536 21.957 20.1727C21.957 19.471 20.3201 16.5412 20.024 16.2451C19.7269 15.9485 19.0578 15.9021 18.035 16.106C17.9366 16.1259 17.8459 16.1743 17.7746 16.2451C17.6508 16.369 14.7531 19.3232 16.13 22.9038C17.6416 26.8334 21.5213 31.4011 26.4676 32.1431C27.0297 32.2272 27.5566 32.269 28.05 32.269C30.9599 32.269 32.6773 30.8049 33.1609 27.9005C33.1971 27.688 33.0946 27.476 32.9061 27.3716ZM26.619 31.1351C21.3883 30.3508 18.0936 25.1685 17.0815 22.5379C16.0776 19.9286 17.929 17.6022 18.3938 17.0763C18.7719 17.0121 19.1699 16.9851 19.336 17.0111C19.6831 17.4937 20.8848 19.764 20.9378 20.1727C20.9378 20.4403 20.8506 20.8128 19.813 21.8509C19.7173 21.9462 19.6637 22.0756 19.6637 22.2112C19.6637 24.8795 25.2919 28.5814 26.2887 28.5814C27.1556 28.5814 28.2859 27.1244 28.9295 26.175C28.9668 26.1765 29.0295 26.1893 29.1186 26.2341C29.3021 26.3264 29.6201 26.5338 30.0222 26.7967C30.5532 27.1438 31.2585 27.6045 32.0912 28.082C31.7131 29.9013 30.6561 31.7415 26.619 31.1351Z" fill="white"/>
</g>
<defs>
<clipPath id="clip0_403_14">
<rect width="48" height="48" fill="white"/>
</clipPath>
</defs>
</svg>
